<?xml version="1.0" encoding="utf-8"?>
<!-- Generator: Adobe Illustrator 19.2.1, SVG Export Plug-In . SVG Version: 6.00 Build 0)  -->
<svg version="1.1" id="Layer_1" xmlns="http://www.w3.org/2000/svg" xmlns:xlink="http://www.w3.org/1999/xlink" x="0px" y="0px"
	 viewBox="0 0 70 70" style="enable-background:new 0 0 70 70;" xml:space="preserve">
<style type="text/css">
	.st0{fill:#EF3F3F;}
	.st1{fill:#FFFFFF;}
	.st2{fill-rule:evenodd;clip-rule:evenodd;fill:#FFFFFF;}
</style>
<rect class="st0" width="70" height="70"/>
<path class="st1" d="M27.9,27.9C27.8,28,27.6,28,27.2,28H26c-0.4,0-0.6-0.1-0.7-0.2c-0.1-0.1-0.2-0.3-0.2-0.7v-2.3h-2.7v2.7
	c0,1.7,0.9,2.6,2.8,2.6H28c1.9,0,2.8-0.9,2.8-2.6v-5.3c0-1.7-0.9-2.6-2.7-2.6h-2.2c-0.4,0-0.6-0.1-0.7-0.2c-0.1-0.1-0.2-0.3-0.2-0.7
	v-4.1c0-0.4,0.1-0.6,0.2-0.7c0.1-0.1,0.4-0.2,0.7-0.2h1.2c0.4,0,0.6,0.1,0.7,0.2C28,14,28,14.3,28,14.6v2.3h2.7v-2.7
	c0-1.7-0.9-2.6-2.8-2.6h-2.9c-1.8,0-2.8,0.9-2.8,2.6v4.9c0,1.8,0.9,2.6,2.7,2.6h2.2c0.4,0,0.6,0.1,0.7,0.2c0.1,0.1,0.2,0.3,0.2,0.7
	v4.5C28.1,27.5,28,27.8,27.9,27.9z"/>
<path class="st1" d="M41.9,13.9l1.7,9.8h-3.2L41.9,13.9z M47.4,30.2l-3.5-18.6H40l-3.3,18.6h2.7l0.7-4.3H44l0.7,4.3H47.4z"/>
<path class="st1" d="M31,36.5c0-1.7-0.9-2.6-2.8-2.6H25c-1.8,0-2.8,0.9-2.8,2.6v13.4c0,1.8,0.9,2.6,2.8,2.6h3.2
	c1.8,0,2.8-0.9,2.8-2.6v-7h-4.2V45h1.5v4.5c0,0.4-0.1,0.6-0.2,0.7c-0.1,0.1-0.4,0.2-0.7,0.2h-1.5c-0.4,0-0.6-0.1-0.7-0.2
	C25,50.1,25,49.9,25,49.5V36.8c0-0.4,0.1-0.6,0.2-0.7c0.1-0.1,0.4-0.2,0.7-0.2h1.5c0.4,0,0.6,0.1,0.7,0.2c0.1,0.1,0.2,0.3,0.2,0.7
	v2.5H31V36.5z"/>
<path class="st1" d="M40.9,43.9h4.3v-2.2h-4.3V36H46v-2.2h-7.9v18.6h8.1v-2.2h-5.4V43.9z"/>
<path class="st2" d="M22.4,55.5h23.8v2.4H22.4V55.5z"/>
</svg>
